<svg xmlns="http://www.w3.org/2000/svg" viewBox="0 0 512 512"><title>Game_Boy</title><g id="Game_Boy" data-name="Game Boy"><g id="Game_Boy-2" data-name="Game Boy"><path d="M335.9892,104.1619H175.6108a11.5793,11.5793,0,0,0-11.57,11.5771V396.2622a11.5782,11.5782,0,0,0,11.57,11.5759H335.9892a11.5782,11.5782,0,0,0,11.57-11.5759V115.739A11.5716,11.5716,0,0,0,335.9892,104.1619ZM244.4419,347.831H227.4143v15.7865H210.4751V347.831H193.4415V330.8978h17.0336V315.1222h16.9392v15.7756h17.0276Zm72.1453,13.9382H288.1786V344.8421h28.4086Zm0-28.4086H288.1786V316.4274h28.4086Zm.16-55.7735h-121.9V131.863h121.9Z"/></g></g></svg>